<svg width="24" height="25" viewBox="0 0 24 25" fill="none" xmlns="http://www.w3.org/2000/svg">
<path d="M17 2.4082H7C4.23858 2.4082 2 4.64678 2 7.4082V17.4082C2 20.1696 4.23858 22.4082 7 22.4082H17C19.7614 22.4082 22 20.1696 22 17.4082V7.4082C22 4.64678 19.7614 2.4082 17 2.4082Z" stroke="white" stroke-width="2" stroke-linecap="round" stroke-linejoin="round"/>
<path d="M16 11.778C16.1234 12.6103 15.9812 13.4602 15.5937 14.207C15.2062 14.9538 14.5931 15.5594 13.8416 15.9377C13.0901 16.316 12.2384 16.4476 11.4077 16.3139C10.5771 16.1803 9.80971 15.7881 9.21479 15.1932C8.61987 14.5983 8.22768 13.8309 8.09402 13.0002C7.96035 12.1696 8.09202 11.3179 8.47028 10.5664C8.84854 9.81487 9.45414 9.20176 10.2009 8.81426C10.9477 8.42676 11.7977 8.2846 12.63 8.40802C13.4789 8.5339 14.2648 8.92948 14.8716 9.53632C15.4785 10.1432 15.8741 10.9291 16 11.778Z" stroke="white" stroke-width="2" stroke-linecap="round" stroke-linejoin="round"/>
<path d="M17.5 6.9082H17.51" stroke="white" stroke-width="2" stroke-linecap="round" stroke-linejoin="round"/>
</svg>
