<svg width="52" height="52" viewBox="0 0 52 52" fill="none" xmlns="http://www.w3.org/2000/svg">
<path d="M26.0059 51.1496C39.8098 51.1496 51 40.0237 51 26.2992C51 12.5747 39.8098 1.44882 26.0059 1.44882C12.202 1.44882 1.01172 12.5747 1.01172 26.2992C1.01172 40.0237 12.202 51.1496 26.0059 51.1496Z" stroke="#B7B7B7"/>
<path d="M24.7062 33.6463L24.6858 27.3871H22.0078V24.7045H24.6858V22.9162C24.6858 20.5026 26.1778 19.3394 28.3272 19.3394C29.3568 19.3394 30.2417 19.4162 30.4995 19.4505V21.9729L29.0088 21.9735C27.8399 21.9735 27.6135 22.53 27.6135 23.3465V24.7045H30.9343L30.0416 27.3871H27.6135V33.6463H24.7062Z" fill="#1E2532"/>
</svg>
