<svg width="52" height="52" viewBox="0 0 52 52" fill="none" xmlns="http://www.w3.org/2000/svg">
<path d="M26.0059 50.8504C39.8098 50.8504 51 39.7245 51 26C51 12.2755 39.8098 1.14961 26.0059 1.14961C12.202 1.14961 1.01172 12.2755 1.01172 26C1.01172 39.7245 12.202 50.8504 26.0059 50.8504Z" stroke="#B7B7B7"/>
<g clip-path="url(#clip0_72_4189)">
<path d="M29.7552 18.548H22.2569C20.1864 18.548 18.5078 20.2169 18.5078 22.2756V29.7307C18.5078 31.7894 20.1864 33.4583 22.2569 33.4583H29.7552C31.8258 33.4583 33.5043 31.7894 33.5043 29.7307V22.2756C33.5043 20.2169 31.8258 18.548 29.7552 18.548Z" stroke="#1E2532" stroke-width="2" stroke-linecap="round" stroke-linejoin="round"/>
<path d="M29.0052 25.5341C29.0978 26.1545 28.9912 26.7882 28.7006 27.345C28.4101 27.9017 27.9503 28.3532 27.3868 28.6352C26.8233 28.9172 26.1847 29.0153 25.5619 28.9157C24.939 28.816 24.3636 28.5237 23.9175 28.0801C23.4715 27.6366 23.1774 27.0645 23.0772 26.4453C22.9769 25.826 23.0757 25.1911 23.3593 24.6308C23.6429 24.0705 24.097 23.6135 24.657 23.3246C25.2169 23.0357 25.8543 22.9297 26.4783 23.0217C27.1149 23.1156 27.7042 23.4105 28.1592 23.8629C28.6142 24.3153 28.9108 24.9012 29.0052 25.5341Z" stroke="#1E2532" stroke-width="2" stroke-linecap="round" stroke-linejoin="round"/>
<ellipse cx="30.1289" cy="21.9007" rx="1.125" ry="1.11827" fill="white"/>
</g>
<defs>
<clipPath id="clip0_72_4189">
<rect width="17.9958" height="17.8923" fill="white" transform="translate(17.0078 17.0559)"/>
</clipPath>
</defs>
</svg>
