<svg width="24" height="25" viewBox="0 0 24 25" fill="none" xmlns="http://www.w3.org/2000/svg">
<path d="M16 8.4082C17.5913 8.4082 19.1174 9.04034 20.2426 10.1656C21.3679 11.2908 22 12.8169 22 14.4082V21.4082H18V14.4082C18 13.8778 17.7893 13.3691 17.4142 12.994C17.0391 12.6189 16.5304 12.4082 16 12.4082C15.4696 12.4082 14.9609 12.6189 14.5858 12.994C14.2107 13.3691 14 13.8778 14 14.4082V21.4082H10V14.4082C10 12.8169 10.6321 11.2908 11.7574 10.1656C12.8826 9.04034 14.4087 8.4082 16 8.4082Z" fill="white"/>
<path d="M6 9.4082H2V21.4082H6V9.4082Z" fill="white"/>
<path d="M4 6.4082C5.10457 6.4082 6 5.51277 6 4.4082C6 3.30363 5.10457 2.4082 4 2.4082C2.89543 2.4082 2 3.30363 2 4.4082C2 5.51277 2.89543 6.4082 4 6.4082Z" fill="white"/>
</svg>
