<svg width="13" height="12" viewBox="0 0 13 12" fill="none" xmlns="http://www.w3.org/2000/svg">
<g clip-path="url(#clip0_136_2790)">
<g clip-path="url(#clip1_136_2790)">
<g clip-path="url(#clip2_136_2790)">
<path d="M12.0585 4.58597C11.9833 4.35354 11.7772 4.18846 11.5333 4.16648L8.22029 3.86566L6.91025 0.799381C6.81366 0.574662 6.59367 0.429199 6.34924 0.429199C6.10482 0.429199 5.88483 0.574662 5.78824 0.799906L4.4782 3.86566L1.16469 4.16648C0.921227 4.18899 0.7156 4.35354 0.640022 4.58597C0.564445 4.81839 0.634242 5.07332 0.818413 5.23403L3.32264 7.43024L2.5842 10.6831C2.53017 10.9222 2.623 11.1695 2.82144 11.3129C2.92811 11.39 3.05291 11.4292 3.17875 11.4292C3.28726 11.4292 3.39489 11.3999 3.49148 11.3421L6.34924 9.63417L9.20596 11.3421C9.415 11.4679 9.6785 11.4564 9.87652 11.3129C10.075 11.169 10.1678 10.9217 10.1138 10.6831L9.37533 7.43024L11.8796 5.23446C12.0637 5.07332 12.134 4.81883 12.0585 4.58597Z" fill="#FFC700"/>
</g>
</g>
</g>
<defs>
<clipPath id="clip0_136_2790">
<rect width="12" height="12" fill="white" transform="translate(0.609985)"/>
</clipPath>
<clipPath id="clip1_136_2790">
<rect width="12" height="12" fill="white" transform="translate(0.609985)"/>
</clipPath>
<clipPath id="clip2_136_2790">
<rect width="12" height="12" fill="white" transform="translate(0.609985)"/>
</clipPath>
</defs>
</svg>
