<svg width="24" height="25" viewBox="0 0 24 25" fill="none" xmlns="http://www.w3.org/2000/svg">
<path d="M23 3.40825C22.0424 4.08373 20.9821 4.60036 19.86 4.93825C19.2577 4.24576 18.4573 3.75494 17.567 3.53218C16.6767 3.30941 15.7395 3.36544 14.8821 3.6927C14.0247 4.01996 13.2884 4.60265 12.773 5.36197C12.2575 6.12128 11.9877 7.02059 12 7.93825V8.93825C10.2426 8.98382 8.50127 8.59406 6.93101 7.8037C5.36074 7.01333 4.01032 5.84688 3 4.40825C3 4.40825 -1 13.4082 8 17.4082C5.94053 18.8062 3.48716 19.5072 1 19.4082C10 24.4082 21 19.4082 21 7.90825C20.9991 7.6297 20.9723 7.35184 20.92 7.07825C21.9406 6.07174 22.6608 4.80096 23 3.40825Z" fill="white"/>
</svg>
