<svg width="24" height="25" viewBox="0 0 24 25" fill="none" xmlns="http://www.w3.org/2000/svg">
<path d="M23 3.408C22.0424 4.08348 20.9821 4.60011 19.86 4.93801C19.2577 4.24552 18.4573 3.7547 17.567 3.53193C16.6767 3.30917 15.7395 3.3652 14.8821 3.69246C14.0247 4.01972 13.2884 4.60241 12.773 5.36172C12.2575 6.12104 11.9877 7.02034 12 7.938V8.938C10.2426 8.98357 8.50127 8.59382 6.93101 7.80345C5.36074 7.01308 4.01032 5.84664 3 4.408C3 4.408 -1 13.408 8 17.408C5.94053 18.806 3.48716 19.5069 1 19.408C10 24.408 21 19.408 21 7.908C20.9991 7.62946 20.9723 7.3516 20.92 7.07801C21.9406 6.0715 22.6608 4.80072 23 3.408Z" fill="white"/>
</svg>
