<svg width="52" height="52" viewBox="0 0 52 52" fill="none" xmlns="http://www.w3.org/2000/svg">
<path d="M26.0059 50.5512C39.8098 50.5512 51 39.4253 51 25.7008C51 11.9763 39.8098 0.850403 26.0059 0.850403C12.202 0.850403 1.01172 11.9763 1.01172 25.7008C1.01172 39.4253 12.202 50.5512 26.0059 50.5512Z" stroke="#B7B7B7"/>
<path d="M33.2902 21.0784C32.7546 21.3466 32.219 21.4361 31.5942 21.5255C32.219 21.1678 32.6653 20.6313 32.8439 19.916C32.3083 20.2736 31.6834 20.4525 30.9693 20.6313C30.4337 20.0948 29.6303 19.7371 28.8269 19.7371C27.3094 19.7371 25.9705 21.0784 25.9705 22.6879C25.9705 22.9562 25.9705 23.135 26.0597 23.3138C23.6496 23.2244 21.418 22.062 19.9897 20.2736C19.7219 20.7207 19.6327 21.1678 19.6327 21.7937C19.6327 22.7773 20.1683 23.6715 20.9716 24.208C20.5253 24.208 20.079 24.0292 19.6327 23.8504C19.6327 25.281 20.6146 26.4435 21.9536 26.7117C21.6858 26.8011 21.418 26.8011 21.1502 26.8011C20.9716 26.8011 20.7931 26.8011 20.6146 26.7117C20.9716 27.8742 22.0428 28.7683 23.3818 28.7683C22.3999 29.5731 21.1502 30.0202 19.7219 30.0202C19.4541 30.0202 19.2756 30.0202 19.0078 30.0202C20.3468 30.825 21.8643 31.3615 23.4711 31.3615C28.8269 31.3615 31.7727 26.8906 31.7727 23.0456C31.7727 22.9562 31.7727 22.7773 31.7727 22.6879C32.3975 22.2408 32.9331 21.7043 33.2902 21.0784Z" fill="#1E2532"/>
</svg>
