<svg width="133" height="23" viewBox="0 0 133 23" fill="none" xmlns="http://www.w3.org/2000/svg">
<g clip-path="url(#clip0_136_2629)">
<path d="M5.31327 8.16667C5.31327 6.42067 6.73394 5 8.47994 5C10.2259 5 11.6466 6.42067 11.6466 8.16667C11.6466 9.91267 10.2259 11.3333 8.47994 11.3333C6.73394 11.3333 5.31327 9.91267 5.31327 8.16667ZM10.4799 12.3333H6.47994C4.36661 12.3333 2.64661 14.0533 2.64661 16.1667C2.64661 17.178 3.46861 18 4.47994 18H12.48C13.4913 18 14.3133 17.178 14.3133 16.1667C14.3133 14.0533 12.5933 12.3333 10.4799 12.3333Z" fill="#79BEF9"/>
</g>
<defs>
<clipPath id="clip0_136_2629">
<rect width="132.52" height="22.5" fill="white" transform="translate(0.47998 0.5)"/>
</clipPath>
</defs>
</svg>
