<svg width="8" height="7" viewBox="0 0 8 7" fill="none" xmlns="http://www.w3.org/2000/svg">
<g clip-path="url(#clip0_377_5817)">
<g clip-path="url(#clip1_377_5817)">
<g clip-path="url(#clip2_377_5817)">
<path d="M6.83153 2.59126C6.79084 2.46549 6.67932 2.37617 6.54735 2.36427L4.75469 2.2015L4.04583 0.542345C3.99357 0.420751 3.87453 0.342041 3.74227 0.342041C3.61002 0.342041 3.49098 0.420751 3.43872 0.54263L2.72986 2.2015L0.936927 2.36427C0.805192 2.37645 0.693928 2.46549 0.653033 2.59126C0.612138 2.71702 0.649905 2.85496 0.74956 2.94192L2.10459 4.13029L1.70502 5.8904C1.67578 6.01977 1.72601 6.15359 1.83339 6.23118C1.89111 6.2729 1.95864 6.29411 2.02673 6.29411C2.08544 6.29411 2.14368 6.27826 2.19595 6.24698L3.74227 5.32283L5.28804 6.24698C5.40115 6.31505 5.54373 6.30883 5.65087 6.23118C5.7583 6.15332 5.80849 6.0195 5.77924 5.8904L5.37968 4.13029L6.73473 2.94215C6.83435 2.85496 6.87239 2.71726 6.83153 2.59126Z" fill="#FFC700"/>
</g>
</g>
</g>
<defs>
<clipPath id="clip0_377_5817">
<rect width="6.49317" height="6.49317" fill="white" transform="translate(0.63678 0.109619)"/>
</clipPath>
<clipPath id="clip1_377_5817">
<rect width="6.49317" height="6.49317" fill="white" transform="translate(0.63678 0.109619)"/>
</clipPath>
<clipPath id="clip2_377_5817">
<rect width="6.49317" height="6.49317" fill="white" transform="translate(0.63678 0.109619)"/>
</clipPath>
</defs>
</svg>
