<svg width="7" height="7" viewBox="0 0 7 7" fill="none" xmlns="http://www.w3.org/2000/svg">
<g clip-path="url(#clip0_377_5809)">
<g clip-path="url(#clip1_377_5809)">
<g clip-path="url(#clip2_377_5809)">
<path d="M6.68108 2.59126C6.64039 2.46549 6.52887 2.37617 6.3969 2.36427L4.60424 2.2015L3.89538 0.542345C3.84312 0.420751 3.72408 0.342041 3.59182 0.342041C3.45957 0.342041 3.34053 0.420751 3.28827 0.54263L2.57941 2.2015L0.786475 2.36427C0.65474 2.37645 0.543476 2.46549 0.502581 2.59126C0.461686 2.71702 0.499453 2.85496 0.599108 2.94192L1.95414 4.13029L1.55457 5.8904C1.52533 6.01977 1.57556 6.15359 1.68294 6.23118C1.74066 6.2729 1.80819 6.29411 1.87628 6.29411C1.93499 6.29411 1.99323 6.27826 2.04549 6.24698L3.59182 5.32283L5.13758 6.24698C5.2507 6.31505 5.39328 6.30883 5.50042 6.23118C5.60785 6.15332 5.65803 6.0195 5.62879 5.8904L5.22923 4.13029L6.58428 2.94215C6.68389 2.85496 6.72193 2.71726 6.68108 2.59126Z" fill="#FFC700"/>
</g>
</g>
</g>
<defs>
<clipPath id="clip0_377_5809">
<rect width="6.49317" height="6.49317" fill="white" transform="translate(0.485352 0.109619)"/>
</clipPath>
<clipPath id="clip1_377_5809">
<rect width="6.49317" height="6.49317" fill="white" transform="translate(0.484375 0.109619)"/>
</clipPath>
<clipPath id="clip2_377_5809">
<rect width="6.49317" height="6.49317" fill="white" transform="translate(0.485352 0.109619)"/>
</clipPath>
</defs>
</svg>
