<svg width="8" height="7" viewBox="0 0 8 7" fill="none" xmlns="http://www.w3.org/2000/svg">
<g clip-path="url(#clip0_377_5805)">
<g clip-path="url(#clip1_377_5805)">
<g clip-path="url(#clip2_377_5805)">
<path d="M7.10662 2.59126C7.06593 2.46549 6.95441 2.37617 6.82243 2.36427L5.02978 2.2015L4.32092 0.542345C4.26865 0.420751 4.14962 0.342041 4.01736 0.342041C3.8851 0.342041 3.76607 0.420751 3.7138 0.54263L3.00494 2.2015L1.21201 2.36427C1.08028 2.37645 0.969013 2.46549 0.928118 2.59126C0.887223 2.71702 0.924991 2.85496 1.02465 2.94192L2.37967 4.13029L1.98011 5.8904C1.95087 6.01977 2.0011 6.15359 2.10847 6.23118C2.16619 6.2729 2.23372 6.29411 2.30181 6.29411C2.36053 6.29411 2.41877 6.27826 2.47103 6.24698L4.01736 5.32283L5.56312 6.24698C5.67623 6.31505 5.81882 6.30883 5.92596 6.23118C6.03338 6.15332 6.08357 6.0195 6.05433 5.8904L5.65477 4.13029L7.00982 2.94215C7.10943 2.85496 7.14747 2.71726 7.10662 2.59126Z" fill="#FFC700"/>
</g>
</g>
</g>
<defs>
<clipPath id="clip0_377_5805">
<rect width="6.49317" height="6.49317" fill="white" transform="translate(0.911072 0.109863)"/>
</clipPath>
<clipPath id="clip1_377_5805">
<rect width="6.49317" height="6.49317" fill="white" transform="translate(0.910034 0.109619)"/>
</clipPath>
<clipPath id="clip2_377_5805">
<rect width="6.49317" height="6.49317" fill="white" transform="translate(0.91095 0.109619)"/>
</clipPath>
</defs>
</svg>
