<svg width="7" height="7" viewBox="0 0 7 7" fill="none" xmlns="http://www.w3.org/2000/svg">
<g clip-path="url(#clip0_377_5801)">
<g clip-path="url(#clip1_377_5801)">
<g clip-path="url(#clip2_377_5801)">
<path d="M6.53313 2.59126C6.49244 2.46549 6.38092 2.37617 6.24895 2.36427L4.45629 2.2015L3.74743 0.542345C3.69517 0.420751 3.57613 0.342041 3.44387 0.342041C3.31162 0.342041 3.19258 0.420751 3.14032 0.54263L2.43146 2.2015L0.638526 2.36427C0.506791 2.37645 0.395527 2.46549 0.354632 2.59126C0.313737 2.71702 0.351504 2.85496 0.451159 2.94192L1.80619 4.13029L1.40662 5.8904C1.37738 6.01977 1.42761 6.15359 1.53499 6.23118C1.59271 6.2729 1.66024 6.29411 1.72833 6.29411C1.78704 6.29411 1.84528 6.27826 1.89755 6.24698L3.44387 5.32283L4.98964 6.24698C5.10275 6.31505 5.24533 6.30883 5.35247 6.23118C5.4599 6.15332 5.51008 6.0195 5.48084 5.8904L5.08128 4.13029L6.43633 2.94215C6.53595 2.85496 6.57398 2.71726 6.53313 2.59126Z" fill="#FFC700"/>
</g>
</g>
</g>
<defs>
<clipPath id="clip0_377_5801">
<rect width="6.49317" height="6.49317" fill="white" transform="translate(0.336548 0.109619)"/>
</clipPath>
<clipPath id="clip1_377_5801">
<rect width="6.49317" height="6.49317" fill="white" transform="translate(0.337158 0.109619)"/>
</clipPath>
<clipPath id="clip2_377_5801">
<rect width="6.49317" height="6.49317" fill="white" transform="translate(0.337769 0.109619)"/>
</clipPath>
</defs>
</svg>
