<svg width="7" height="7" viewBox="0 0 7 7" fill="none" xmlns="http://www.w3.org/2000/svg">
<g clip-path="url(#clip0_377_5813)">
<g clip-path="url(#clip1_377_5813)">
<g clip-path="url(#clip2_377_5813)">
<path d="M6.25713 2.59126C6.21644 2.46549 6.10492 2.37617 5.97295 2.36427L4.18029 2.2015L3.47143 0.542345C3.41917 0.420751 3.30013 0.342041 3.16787 0.342041C3.03562 0.342041 2.91658 0.420751 2.86432 0.54263L2.15546 2.2015L0.362525 2.36427C0.23079 2.37645 0.119526 2.46549 0.0786308 2.59126C0.037736 2.71702 0.0755033 2.85496 0.175158 2.94192L1.53019 4.13029L1.13062 5.8904C1.10138 6.01977 1.15161 6.15359 1.25899 6.23118C1.31671 6.2729 1.38424 6.29411 1.45233 6.29411C1.51104 6.29411 1.56928 6.27826 1.62154 6.24698L3.16787 5.32283L4.71363 6.24698C4.82675 6.31505 4.96933 6.30883 5.07647 6.23118C5.1839 6.15332 5.23408 6.0195 5.20484 5.8904L4.80528 4.13029L6.16033 2.94215C6.25994 2.85496 6.29798 2.71726 6.25713 2.59126Z" fill="#FFC700"/>
</g>
</g>
</g>
<defs>
<clipPath id="clip0_377_5813">
<rect width="6.49317" height="6.49317" fill="white" transform="translate(0.0623779 0.109619)"/>
</clipPath>
<clipPath id="clip1_377_5813">
<rect width="6.49317" height="6.49317" fill="white" transform="translate(0.0623779 0.109619)"/>
</clipPath>
<clipPath id="clip2_377_5813">
<rect width="6.49317" height="6.49317" fill="white" transform="translate(0.0623779 0.109619)"/>
</clipPath>
</defs>
</svg>
